<svg version="1" xmlns="http://www.w3.org/2000/svg" width="834.667" height="834.667" viewBox="0 0 626.000000 626.000000"><path d="M138.5 29.6c-21.2 1.1-65.6 6-74.3 8.1l-2.3.5.6 19.2C63.8 100 65.4 119.6 71 163c3.1 23.9 7.7 44.9 16.2 73 5.7 19.1 16.7 48.4 16.8 44.9 0-1-1.8-12.4-4-25.5-5.7-34.3-11.5-80.6-14-111.9-1.7-21-.8-82 1.2-84 .9-.9 32-3.5 54.8-4.6 21.7-1 35.4-.9 58 .6 18 1.2 36.5 2.7 36.8 3 .2.1-2.5 1.7-6 3.5-6.4 3.3-23.4 14.5-24.4 16.1-.2.4.7 2.7 2.2 5l2.6 4.2-7.3-.5-7.2-.6-4.9 4.6-4.9 4.5 2.8 2.9 2.7 2.8h-11l-6.6 8.7c-3.6 4.9-8.3 11.5-10.4 14.8-9.4 14.8-20.5 43.5-23.5 60.2-.7 4-1.5 7.3-1.8 7.3-.3 0-.6 1.5-.7 3.2-.1 1.8-.7 10.8-1.5 20.1-1 13.5-1.1 19.9-.1 33.5 1.1 15.4 3.8 35 6.2 44.7 3.2 13.4-1 37.3-8.5 48.5-1.9 2.7-3 5.2-2.5 5.5 1.3.8 18.6-5.2 27.1-9.5 14.6-7.2 30.6-19.8 36.8-28.8 2.1-2.9 2.7-3.2 7.7-3.2 4.9 0 5.4.2 5.4 2.2 0 1.3.6 5.1 1.3 8.5l1.3 6.2-8 7.3c-5 4.6-7.4 7.4-6.5 7.6.9.1 4.9-.1 9-.6s7.5-.8 7.7-.7c.1.1-.7 2.9-1.7 6.3-1.1 3.3-1.7 6.9-1.4 8 .4 1.6-.8 2.9-5.4 6-10.5 7.1-26.8 15-27.5 13.3-.6-1.5-13.6-9.9-20.1-13-9.6-4.6-16.8-6.1-28.8-6.1h-10.7l-7.5-19.3C91.6 283 80.6 246.2 69.6 195c-4.1-19.3-8.2-41.9-13.2-72.5-.9-5.5-1.7-10.1-1.9-10.3-1.1-1.2-1.4 25.1-.5 47.8 2.4 63.7 9.8 113.6 24.4 164.5 25.4 89.2 69.3 163.9 132.4 225.7 15.4 15 29.7 27.6 44.5 39.2l8.8 6.9 4.2-1.3c5.8-1.7 36-16.3 49.2-23.9 14.9-8.5 42.4-26.9 56.6-37.7 73.4-56 126.2-126.1 153.1-203.4 5.4-15.4 5.6-16.7 1.7-10.3-2.9 5-25.4 38.7-32.4 48.6-15.6 22.2-39.3 49.7-65.3 75.6l-19.5 19.5-1.9-2.5c-3.5-4.6-8.2-8.9-11-10.2-1.5-.6-2.8-1.6-2.8-2.2 0-2.3 3-41.4 3.5-45.5.3-2.5.6-6.4.7-8.7.2-4.7 1.3-4.7 5.7.1 1.4 1.4 2.8 2.6 3.3 2.6s.6-5.1.2-11.3c-1.4-24.4 5.8-99.2 11.5-120.7 7.2-26.5 7.4-28 7.5-42.5.1-11.3-.3-15.1-1.8-19.4l-1.9-5.4-2.1 2.9c-5.8 8-14.3 15.6-28.8 25.7l-6.6 4.7-3.2-5c-2.1-3.2-2.9-5.4-2.3-6.3.4-.8 4.2-5.2 8.4-9.8 4.2-4.6 9.4-10.4 11.5-12.9 2.1-2.5 4.1-4.7 4.4-5 1.2-1 17.7-19.8 23-26 3-3.5 6.5-7.6 7.7-9 1.2-1.4 6.3-7.5 11.3-13.5 5.1-6.1 9.6-11.2 10.1-11.3 1.2-.5 15 8.3 26.9 17.1 12.7 9.4 24.9 19.7 39.9 33.6l12.3 11.5-.6 6.8c-1.5 16.4-9 50.5-16.6 75.7-8.8 29.1-17.5 50.4-33.5 82.6-4.9 9.9-9.1 18.4-9.3 19-.2.5 2.9-2.4 6.8-6.5 32.1-33.8 64.2-97.3 85.5-169.3l2.6-8.9-3.7-4.5c-20.5-25.1-52.7-53.7-83-74.1-8.8-5.8-9.1-6.2-9.7-10.5-.3-2.4-2-8.3-3.8-13.1-2.7-7.5-3.8-9.2-7.2-11.7l-4.1-2.9-3.6 3.5c-2 1.9-4.1 3.5-4.8 3.5-.6 0-1.9-2.6-2.7-5.8-2.3-8.2-2.5-8.6-3.2-7.8-1.5 1.5-23.9 47.6-22.9 47.2 14.1-5.7 37.1-14.5 37.4-14.2.2.3-7.4 9.8-17 21.3-9.6 11.4-21.6 25.9-26.8 32.1-5.1 6.1-9.5 11-9.7 10.8-.2-.2.7-2.5 2.1-5.2 3-6.3 6.8-17.9 6.4-19.8-.2-1.2-1.3-.9-4.9 1.3-4.2 2.7-19.9 11.1-20.6 11.1-.2 0 1-2.7 2.7-6 1.7-3.3 2.5-6 1.9-6-1.6 0-19.7 8.9-20.4 10.1-1.1 1.6-4 1-13.6-3.2-14.9-6.5-29.9-10-46-10.6-33.4-1.4-63.6 8-85.5 26.4-10.3 8.7-23.7 18.5-29.5 21.6-8.1 4.4-18.7 7-26.7 6.5-3.4-.1-6.2-.1-6.2.2 0 .3 4.5 2.7 10.1 5.4 5.5 2.6 9.8 5 9.5 5.3-.4.5-19.6-1.2-26.3-2.3-4.6-.7-4.1.7 1.5 3.8 8.4 4.7 15.8 13.6 13.4 16-.6.6-4.6 1.4-8.9 1.9-4.3.4-7.9.8-8 .8-1.4.4-4.3 5.1-4.4 7-.3 6.5-1.9-7.9-2.5-22.9-.7-17.2.3-29.5 3.1-40.4 3.2-12.2 13.5-35 24.1-53.2l2.4-4.1 18 4.5c9.9 2.5 18.3 4.3 18.6 4 .5-.5-2.1-3.6-11.3-13.7-2.8-3.1-5-5.7-4.9-5.9.2-.1 8.5 4.7 18.6 10.8 10 6.1 18.4 10.9 18.6 10.7.2-.2-3-9.9-7.1-21.5l-7.6-21.1 3.8-3.4c9.1-8.2 13.8-11.4 24.9-17 17-8.6 35.3-14.3 59.9-18.7 11.2-2 7.8-2.6-5.5-.9-7.4 1-10.3.8-21.5-1-38-6-64.4-8.1-106-8.5-18.7-.2-37.1-.2-41 0zm194.4 122.9c7.9 1.8 24.5 7.4 23.8 8.2-.3.2-3.3-.4-6.8-1.4-5-1.4-9.9-1.7-22.4-1.7-19.2.1-28.5 2-11 2.3 25.4.3 50.5 7.9 62.5 18.7 3.6 3.3 4 4.1 4 8.5 0 4 .5 5.3 2.5 7 2.2 2 2.3 2.4 1 4.8-.8 1.4-2.3 3.6-3.4 4.9l-2 2.2-8.5-5.5c-20.7-13.5-40.9-20.2-64.1-21.2-20.3-.9-39.2 3.5-54.6 12.7-7.8 4.6-10.3 7.3-3.8 3.9 6.9-3.5 20.6-7.8 29.8-9.4 10.6-1.9 29.8-1.9 39.3-.1 16.6 3.2 34.5 10.6 47.8 19.6 5.4 3.7 6 4.4 4.5 5.3-1.3.7-2.5.5-4.4-.6-13.3-7.7-28.4-14-42.6-17.8-8-2.1-11.1-2.4-27.5-2.3-17.2 0-19.1.2-27.3 2.7-11.9 3.7-20.6 7.8-28.4 13.3-8.9 6.3-18.8 15.7-24 22.8-2.4 3.2-4.3 5.5-4.3 5.2 0-.4 2-4.6 4.4-9.4 4.5-9.2 6.6-15.1 8.5-24.3 2-9.9 6.5-17.6 14.9-25.9 11.6-11.3 25-17.7 47.7-22.6 9.4-2.1 12.9-2.3 24-2 7.2.3 16.3 1.2 20.4 2.1zM308 198c4.7.6 11.9 2 16 3.1 10.1 2.7 26.1 10.6 33.5 16.6 6.9 5.6 17.9 18.3 16.8 19.4-1.4 1.4-102.3 35.3-103 34.6-.1-.2 7-3.4 16-7.2 19.7-8.4 50-23.5 50.5-25.3.3-1.1-.6-1.2-4.4-.5-2.7.4-8.1.8-12 .7-8.6-.1-12.6-1.9-23.9-10.5-20.2-15.4-36.4-17.8-54.2-7.8-2.9 1.6-5.6 2.9-6 2.9-1.4 0 7.4-8.3 12.7-12 11.3-7.7 23.7-12.4 36.7-13.9 10-1.2 12-1.2 21.3-.1zm108.6 32.6c1 8.5-.1 17.4-4 32.4-2 7.4-4.4 19.1-5.5 26-2.5 15.4-6 53.5-6.8 73.2-.3 8.2-.9 14.8-1.2 14.8-.4 0-1.6-.7-2.8-1.5-2-1.4-2.1-2.3-2.5-24.9-.4-27.4.8-24.6-14.3-34.6l-9.3-6.1 3.5-7.2c1.9-4 4.4-9.4 5.4-12l1.9-4.9-2.3 1.9c-1.2 1-4.9 4.7-8.1 8.3-3.2 3.6-6.4 7.1-7.1 7.8-1 1.1-2.6.6-9.1-3.1-4.4-2.4-8.9-4.9-10-5.5-2-1.1-3.1.1-14.3 14.8-12 15.8-12.1 15.9-9.9 17.3 1.3.8 5.9 3.6 10.3 6.2s8.1 4.8 8.3 5c.1.1-1.7 4.2-4.1 9.1-7.2 14.5-6.9 14.9 3.1 5l9-8.9 10.9 6.3c5.9 3.4 10.9 6.4 11.1 6.5.2.2-.6 3.8-1.7 8.1-4.6 18.3-9.9 51.1-13.1 81.4-.7 5.8-1.3 10.7-1.5 10.9-.7.7-14.7-4-24.9-8.4-17.4-7.4-36.4-19.3-50.9-31.8-3.1-2.8-5.5-5.2-5.3-5.4.2-.2 2.6.9 5.2 2.5 2.7 1.7 8.7 5.1 13.4 7.7l8.5 4.6-5.1-5.3c-6.7-6.8-10.1-12.4-12-19.6-1.5-5.8-1.2-15 .8-20.1.7-2 .2-3.8-2.5-9-1.9-3.7-3.7-8-4.1-9.6-1.1-4.9 2.4-14.1 9.6-25.6 7.8-12.5 12.3-20.8 11.5-21.5-.3-.4-6.3.5-13.4 1.9-23.9 4.8-42.4 7.9-43 7.3-.3-.3.2-1.7 1.1-3 1.3-2.1 6.4-4.1 31.3-12.1 36-11.6 55.3-18.3 69.3-24.2 11.6-5 25.4-12.2 29.1-15.3 2.2-1.9 2-1.8-4.1.4-28 10.1-76.4 25.4-86 27.2-4.1.7-10.1 1.3-13.2 1.4-6.1 0-7.7-.9-10.3-6.1-1.5-2.8-1.5-2.9 1.7-4.2 1.8-.8 5.1-2 7.3-2.7 2.2-.7 18-6.7 35-13.2 17.1-6.6 41.3-15.6 53.8-19.9 12.6-4.3 26.8-9.5 31.5-11.6 9.5-4 24.1-12.3 26.1-14.7 2.2-2.6 2.9-1.8 3.7 4zM242.7 363.4c4 4.7 2.6 12.6-3.7 20.6l-3 3.7 5.2 6.9c12.9 17.3 27.3 30.6 45.2 41.8l8.8 5.6-2.8 1c-1.6.6-7.5 3.1-13.1 5.6-5.6 2.4-10.8 4.4-11.5 4.4-.7 0-2.5-1.3-4-2.9l-2.7-2.8 6.2-.6c3.4-.4 8.9-1.5 12.1-2.5 5.6-1.7 5.8-1.9 4.2-3.5-2.1-2.1-4-2.1-13.3-.3-4 .7-7.3 1.1-7.3.7 0-.3 1.7-1.5 3.7-2.7l3.6-2.1-6.6-.6c-7.9-.7-16.8-4.6-25.5-11-7.3-5.3-11.6-6.8-16.6-5.7-1.9.4-3.7.5-4 .2-.3-.2 1-3.2 2.8-6.6 7-12.8 13.5-26.3 14.9-31.1 1.6-5 2.9-13.5 2.1-13.5-.2 0-1.9 3-3.8 6.7-7.5 15-17.1 24.7-24.2 24.7-2.8 0-4.3-1.1-10.1-7-3.7-3.9-8.3-7.6-10-8.3-1.8-.8-3.3-1.7-3.3-2.2 0-.4 2.1-1.7 4.6-2.9 2.6-1.1 10.2-5.2 16.9-9 13.5-7.7 20.6-10.2 27.9-9.6 3.9.3 5.5.9 7.3 3zm-93.5.7c6.2 2 17 8.6 17.2 10.4.2 1.9-6.3 1.7-9.2-.3-3.3-2.4-13.4-4.2-22.9-4.2-7.2 0-9.1-.9-10.6-5.2-.5-1.4.2-1.8 4.6-2.1 11.9-.8 15-.6 20.9 1.4zm-10.6 13.5c8.7 6.5 12.8 12.6 12.6 18.6-.2 3.1.4 4.3 3.3 6.9 1.9 1.8 3.3 3.4 3.1 3.6-.5.5-12.8-3.7-14.3-4.9-1.6-1.3-7.6-11.9-7-12.5.3-.2 2.2.3 4.2 1.1 2.1.9 4 1.6 4.4 1.6.9-.1-4.2-4-5.2-4-3.3-.1-11.7-10.8-11.7-14.9 0-1.3 6.7 1.5 10.6 4.5zm35.6 59.3c10.1 6.6 24.7 16.1 32.6 21.2 7.8 5.1 14.2 9.8 14.2 10.5 0 1.4-8-.9-31.4-9l-15-5.2-4.3-6.5c-2.3-3.5-4.9-7.1-5.7-7.9-1.7-1.9-9.7-15-9.2-15 .3 0 8.7 5.4 18.8 11.9zm127.4 28.4c10.6 5.4 16.6 15.4 16.8 27.7.1 6.6-.3 8.4-3.2 14.2-9.4 19.1-34.3 23.3-49.6 8.3-4.3-4.3-8.1-11.8-9.1-18.2-1.5-9.2 4-22.4 11.7-28.6 8.9-7.1 23.2-8.6 33.4-3.4zm81.6-.9c2 1.3 5.6 3.6 8.1 5l4.5 2.7-.5-4.1c-.4-2.7-.2-4 .6-4 1.9 0 9.1 5.2 9.1 6.6 0 .7-1.4 2.4-3.1 3.7-2.5 1.9-3.8 2.3-5.9 1.7-2.4-.7-8.2-1.5-25.7-3.6-4.9-.6-5.4-2-2-5.2 2.2-2.1 8.2-5.1 10.3-5.2.6 0 2.7 1.1 4.6 2.4zm-195.4 3.3c.8.7 2.3 1.8 3.4 2.4 2.9 1.6 1.7 2-2.3.8-2.2-.7-4.3-2.4-5.8-4.7l-2.4-3.6 2.9 1.9c1.6 1 3.5 2.5 4.2 3.2zM397 478.9c0 1.1-3 3.6-3 2.5 0-.5-.4-.4-.8.1-.4.6-3.4 3.3-6.7 6.2l-6.1 5.1-7.9-1.9c-4.4-1.1-11.4-2.2-15.5-2.6-7.4-.6-7.4-.7-4.3-2 12.6-5.1 44.3-10.5 44.3-7.4zM216.2 495c8.3 3.3 15.3 6.2 15.6 6.4.2.3-1.1 1.9-3 3.6l-3.3 3.1 3.5-.5c11.6-1.7 15.5-1.6 20.7.6 3.4 1.6 6.2 3.8 8.5 6.8 6.7 8.9 12.5 12 29.4 15.9 9.2 2.2 21 6.3 22.8 8.1 1 1-21.3 12.1-35.1 17.5l-7.2 2.8-7.8-6.9c-4.3-3.7-14.4-13.3-22.5-21.3-12.2-12-15-15.3-16.3-19.2-1.9-5.6-4.2-8-5.5-5.9-.5.8-1.1 1.2-1.2 1-.2-.3-3.1-3.7-6.3-7.5-8.8-10.4-8.9-10.5-8.1-10.5.3 0 7.4 2.7 15.8 6zm152.8 6.5c0 .2-2 2-4.5 3.9-4 3-5 3.3-7.7 2.5-3.6-1-5.5-2.5-4.5-3.5 1.8-1.8 16.7-4.4 16.7-2.9z"/><path d="M404 237.6c-4.1 2.5-10.3 5.9-13.6 7.5-6.6 3-29.9 10.9-32.3 10.9-.8 0-1.2.3-.9.6.3.3 4 .1 8.2-.5 8.7-1.2 10.6-.7 15.9 4.2 4.6 4.4 9.3 5.5 13.8 3.3 1.8-.9 3.6-1.6 4.1-1.6.4 0 .9 8.4.9 18.7.1 10.4.4 17.4.6 15.8 2.5-20 4.7-32.3 7.3-39.7 2.5-7.2 5.3-23.8 3.9-23.8-.2 0-3.8 2.1-7.9 4.6zM286 471.4c0 .2 1.3 1.8 2.9 3.5 3.9 4.2 4.9 9.9 2.4 14.8-4.7 9.6-16.7 11-23.2 2.7l-2.1-2.7v6c0 10.1 6.5 19.8 15.6 23.4 4.2 1.6 14.3 1.3 18.5-.5 5.7-2.4 10-6.5 12.5-12.1 7.6-16.2-4.3-35.4-21.8-35.5-2.7 0-4.8.2-4.8.4zM327.8 37.7c.6.2 1.8.2 2.5 0 .6-.3.1-.5-1.3-.5-1.4 0-1.9.2-1.2.5zM388.7 53.7c-.4 3.7-.5 6.9-.2 7.1.2.2 1.5-1.9 2.9-4.7 1.5-2.8 2.2-5.1 1.7-5.1-.5 0-1.3-.9-1.6-2-1.2-3.7-2.2-2-2.8 4.7zM400.8 64.7c-.9 8.1-1.5 14.9-1.4 15.1.2.1 2.9-3.3 6-7.5l5.8-7.7-2.9-5.3c-5.9-11-5.7-11.2-7.5 5.4z"/></svg>